<?xml version="1.0" encoding="UTF-8" standalone="no"?>
<!-- Created with Inkscape (http://www.inkscape.org/) -->

<svg
   width="600"
   height="600"
   viewBox="0 0 158.75 158.75"
   version="1.1"
   id="svg5"
   inkscape:version="1.1.1 (3bf5ae0d25, 2021-09-20)"
   sodipodi:docname="logo.svg"
   xmlns:inkscape="http://www.inkscape.org/namespaces/inkscape"
   xmlns:sodipodi="http://sodipodi.sourceforge.net/DTD/sodipodi-0.dtd"
   xmlns="http://www.w3.org/2000/svg"
   xmlns:svg="http://www.w3.org/2000/svg">
  <sodipodi:namedview
     id="namedview7"
     pagecolor="#ffffff"
     bordercolor="#666666"
     borderopacity="1.0"
     inkscape:pageshadow="2"
     inkscape:pageopacity="0.0"
     inkscape:pagecheckerboard="0"
     inkscape:document-units="mm"
     showgrid="false"
     units="px"
     inkscape:zoom="0.53129033"
     inkscape:cx="-207.98421"
     inkscape:cy="383.02975"
     inkscape:window-width="1920"
     inkscape:window-height="966"
     inkscape:window-x="0"
     inkscape:window-y="0"
     inkscape:window-maximized="1"
     inkscape:current-layer="layer1" />
  <defs
     id="defs2" />
  <g
     inkscape:label="Layer 1"
     inkscape:groupmode="layer"
     id="layer1">
    <path
       style="fill:#00abd5;stroke-width:0.394664;fill-opacity:1"
       d="m 79.374999,0.61978259 c -20.801482,0 -41.602978,0.13736535 -44.005078,0.41162231 C 18.34515,2.9751677 4.9320088,15.426429 1.3332064,32.626911 c -1.077445,5.149562 -1.06108165,87.858969 0.018496,93.407509 3.274668,16.83012 16.0277856,28.9626 33.4262296,31.79902 4.509093,0.73514 90.775788,-0.0306 93.535458,-0.8302 15.66099,-4.53773 26.10616,-15.65947 29.08492,-30.96882 1.07956,-5.54854 1.09592,-88.257947 0.0185,-93.407509 C 153.818,15.426429 140.40483,2.9751677 123.38008,1.0314049 120.97797,0.75714514 100.17649,0.61978259 79.374999,0.61978259 Z"
       id="path1136" />
    <path
       id="path2101"
       style="fill:#ffffff;fill-opacity:1;stroke-width:0.449949"
       d="m 63.090503,29.387934 c -0.569267,-0.0022 -1.110776,0.0032 -1.626675,0.01845 -12.381507,0.363536 -9.758272,6.360959 -9.758272,48.527717 0,52.712869 -0.351127,47.941909 3.564444,48.467089 1.516247,0.20338 1.834945,0.4178 1.834945,1.23649 0,1.43571 0.313624,1.59063 3.224346,1.59063 2.616485,0 2.624995,-0.005 2.624995,-1.34984 0,-1.34985 3e-6,-1.34985 16.423139,-1.34985 16.42314,0 16.42315,5.1e-4 16.42315,1.37182 0,1.99925 5.529285,1.92429 5.761455,-0.0782 0.11683,-1.0077 0.40335,-1.21745 1.94744,-1.42455 3.88635,-0.52126 3.53982,4.19307 3.53982,-48.20784 0,-56.478782 4.59829,-48.400291 -27.549705,-48.400291 -7.100121,0 -12.42422,-0.386295 -16.409082,-0.401611 z m 16.286922,6.250949 c 21.822535,0 21.822535,5e-6 21.822535,12.148627 0,12.148627 0,12.148632 -2.474725,12.148627 -2.47472,0 -2.47471,5.53e-4 -2.47471,-3.868505 0,-5.590518 -1.26722,-7.788373 -4.068,-7.05594 -1.57647,0.412257 -2.23129,2.424619 -2.23129,6.852936 0,4.071887 0,4.071509 -16.198172,4.071509 -16.198186,5e-6 -16.198167,5e-6 -16.198167,-12.148627 0,-12.148622 -1.4e-5,-12.148622 21.822529,-12.148627 z m -5.624362,30.146593 c 16.197532,0 16.197522,-4e-6 16.204322,4.16203 0.0153,9.488523 5.89389,9.764166 6.22283,0.291766 0.15459,-4.453351 0.15457,-4.453796 2.58721,-4.453796 2.432545,0 2.432535,-1.4e-5 2.432535,27.221924 0,27.22193 0,27.22193 -21.822535,27.22193 -21.822543,0 -21.822529,0 -21.822529,-27.22193 0,-27.221938 -1.9e-5,-27.221924 16.198167,-27.221924 z" />
  </g>
</svg>
