<?xml version="1.0" encoding="UTF-8" standalone="no"?>
<!-- Created with Inkscape (http://www.inkscape.org/) -->

<svg
   width="600"
   height="600"
   viewBox="0 0 158.75 158.75"
   version="1.1"
   id="svg5"
   inkscape:version="1.1.1 (3bf5ae0d25, 2021-09-20)"
   sodipodi:docname="logo.svg"
   xmlns:inkscape="http://www.inkscape.org/namespaces/inkscape"
   xmlns:sodipodi="http://sodipodi.sourceforge.net/DTD/sodipodi-0.dtd"
   xmlns="http://www.w3.org/2000/svg"
   xmlns:svg="http://www.w3.org/2000/svg">
  <sodipodi:namedview
     id="namedview7"
     pagecolor="#ffffff"
     bordercolor="#666666"
     borderopacity="1.0"
     inkscape:pageshadow="2"
     inkscape:pageopacity="0.0"
     inkscape:pagecheckerboard="0"
     inkscape:document-units="mm"
     showgrid="false"
     units="px"
     inkscape:zoom="0.53129033"
     inkscape:cx="-206.102"
     inkscape:cy="383.02975"
     inkscape:window-width="1920"
     inkscape:window-height="966"
     inkscape:window-x="0"
     inkscape:window-y="0"
     inkscape:window-maximized="1"
     inkscape:current-layer="layer1" />
  <defs
     id="defs2" />
  <g
     inkscape:label="Layer 1"
     inkscape:groupmode="layer"
     id="layer1">
    <path
       style="fill:#00abd5;fill-opacity:1;stroke-width:0.394664"
       d="m 79.374999,0.6197802 c -20.80148,0 -41.60297,0.137365 -44.00507,0.411622 C 18.345159,2.9751652 4.9320184,15.426427 1.3332084,32.62691 c -1.07744001,5.149562 -1.06108001,87.85897 0.0185,93.40751 3.27467,16.83012 16.0277806,28.9626 33.4262306,31.79902 4.50909,0.73514 90.775781,-0.0306 93.535451,-0.8302 15.66099,-4.53773 26.10616,-15.65947 29.08492,-30.96882 1.07956,-5.54854 1.09592,-88.257948 0.0185,-93.40751 C 153.818,15.426427 140.40483,2.9751652 123.38008,1.0314022 120.97797,0.7571422 100.17649,0.6197802 79.374999,0.6197802 Z"
       id="path1136" />
    <path
       id="path2101"
       style="fill:#ffffff;fill-opacity:1;stroke-width:0.688955"
       d="m 54.440427,2.8355697 c -0.871653,-0.00337 -1.700803,0.0049 -2.49074,0.02825 C 32.991313,3.4204605 37.00797,12.603623 37.00797,77.168719 c 0,80.713131 -0.53764,73.407911 5.457822,74.212061 2.321655,0.31141 2.809641,0.63972 2.809641,1.8933 0,2.19833 0.480216,2.43554 4.937069,2.43554 4.006322,0 4.019352,-0.007 4.019352,-2.06685 0,-2.06687 5e-6,-2.06687 25.146861,-2.06687 25.146855,0 25.146875,7.8e-4 25.146875,2.10051 0,3.06122 8.46636,2.94645 8.82185,-0.11978 0.17889,-1.54299 0.6176,-1.86415 2.98189,-2.18126 5.95072,-0.79814 5.42012,6.42036 5.42012,-73.8151 0,-86.4794495 7.04083,-74.1097874 -42.183686,-74.1097874 -10.871597,0 -19.023777,-0.591489 -25.125337,-0.6149407 z m 24.938288,9.5713563 c 33.414325,0 33.414325,9e-6 33.414325,18.601793 0,18.601792 0,18.6018 -3.78925,18.601792 -3.78926,0 -3.78924,8.48e-4 -3.78924,-5.923396 0,-8.560115 -1.94035,-11.925437 -6.228866,-10.803947 -2.413865,0.631242 -3.416514,3.71254 -3.416514,10.493111 0,6.234811 0,6.234232 -24.802393,6.234232 -24.802415,8e-6 -24.802386,8e-6 -24.802386,-18.601792 0,-18.601784 -2.2e-5,-18.601784 33.414324,-18.601793 z M 70.766777,58.56693 c 24.801414,0 24.801398,-6e-6 24.811811,6.372837 0.02343,14.528681 9.024632,14.950742 9.528302,0.446747 0.2367,-6.818903 0.23668,-6.819584 3.96149,-6.819584 3.72469,0 3.72466,-2.1e-5 3.72466,41.68179 0,41.68181 0,41.68181 -33.414325,41.68181 -33.414346,0 -33.414324,0 -33.414324,-41.68181 0,-41.681811 -2.9e-5,-41.68179 24.802386,-41.68179 z" />
  </g>
</svg>
