<?xml version="1.0" encoding="UTF-8" standalone="no"?>
<!-- Created with Inkscape (http://www.inkscape.org/) -->

<svg
   width="600"
   height="600"
   viewBox="0 0 158.75 158.75"
   version="1.1"
   id="svg5"
   inkscape:version="1.1.1 (3bf5ae0d25, 2021-09-20)"
   sodipodi:docname="logo.svg"
   inkscape:export-filename="/home/adrian/Documents/Projects/the-fridge/icon-nobackround-dogfood.png"
   inkscape:export-xdpi="96"
   inkscape:export-ydpi="96"
   xmlns:inkscape="http://www.inkscape.org/namespaces/inkscape"
   xmlns:sodipodi="http://sodipodi.sourceforge.net/DTD/sodipodi-0.dtd"
   xmlns="http://www.w3.org/2000/svg"
   xmlns:svg="http://www.w3.org/2000/svg">
  <sodipodi:namedview
     id="namedview7"
     pagecolor="#ffffff"
     bordercolor="#666666"
     borderopacity="1.0"
     inkscape:pageshadow="2"
     inkscape:pageopacity="0.0"
     inkscape:pagecheckerboard="0"
     inkscape:document-units="mm"
     showgrid="false"
     units="px"
     inkscape:zoom="0.53129033"
     inkscape:cx="-63.054037"
     inkscape:cy="383.02975"
     inkscape:window-width="1920"
     inkscape:window-height="966"
     inkscape:window-x="0"
     inkscape:window-y="27"
     inkscape:window-maximized="1"
     inkscape:current-layer="layer2" />
  <defs
     id="defs2" />
  <g
     inkscape:label="Layer 1"
     inkscape:groupmode="layer"
     id="layer1"
     style="display:inline">
    <path
       style="fill:#5b4b81;fill-opacity:1;stroke-width:0.394664"
       d="m 79.374996,0.61978099 c -20.80148,0 -41.60297,0.137365 -44.00507,0.41162201 C 18.345156,2.975166 4.9320166,15.426427 1.3332066,32.62691 c -1.07743997,5.149562 -1.06107997,87.85897 0.0185,93.40751 3.27467,16.83012 16.0277794,28.9626 33.4262294,31.79902 4.50909,0.73514 90.775784,-0.0306 93.535454,-0.8302 15.66099,-4.53773 26.10616,-15.65947 29.08492,-30.96882 1.07956,-5.54854 1.09592,-88.257948 0.0185,-93.40751 C 153.818,15.426427 140.40483,2.975166 123.38008,1.031403 120.97797,0.75714299 100.17649,0.61978099 79.374996,0.61978099 Z"
       id="path1082" />
    <path
       id="path1084"
       style="fill:#ffffff;fill-opacity:1;stroke-width:0.46336"
       d="m 62.605141,27.898052 c -0.58623,-0.0023 -1.14388,0.0033 -1.67516,0.019 -12.75054,0.374371 -10.04912,6.550552 -10.04912,49.974112 0,54.283976 -0.36159,49.370826 3.67069,49.911656 1.56143,0.20944 1.88963,0.43025 1.88963,1.27335 0,1.47849 0.32297,1.63803 3.32045,1.63803 2.69447,0 2.70324,-0.006 2.70324,-1.39007 0,-1.39008 0,-1.39008 16.91264,-1.39008 16.91263,0 16.91264,5.3e-4 16.91264,1.41271 0,2.05883 5.694099,1.98165 5.933169,-0.0805 0.12032,-1.03774 0.41537,-1.25374 2.00549,-1.46702 4.00218,-0.53679 3.64532,4.31805 3.64532,-49.644674 0,-58.162162 4.73534,-49.842886 -28.370819,-49.842886 -7.31175,0 -12.79454,-0.397809 -16.89817,-0.413582 z m 16.77237,6.437262 c 22.472949,0 22.472949,5e-6 22.472949,12.510724 0,12.510723 0,12.510727 -2.548479,12.510723 -2.54848,0 -2.54846,5.7e-4 -2.54846,-3.983809 0,-5.757145 -1.305,-8.020509 -4.18925,-7.266245 -1.62346,0.424544 -2.2978,2.496886 -2.2978,7.057191 0,4.193252 0,4.192863 -16.68096,4.192863 -16.68099,4e-6 -16.68097,4e-6 -16.68097,-12.510723 0,-12.510719 -1e-5,-12.510719 22.47297,-12.510724 z m -5.792,31.045127 c 16.6803,0 16.68029,-2e-6 16.6873,4.286083 0.0158,9.771333 6.06955,10.055192 6.4083,0.300462 0.1592,-4.586086 0.15918,-4.586545 2.66432,-4.586545 2.505039,0 2.505029,-1.3e-5 2.505029,28.033286 0,28.033283 0,28.033283 -22.472949,28.033283 -22.47298,0 -22.47297,0 -22.47297,-28.033283 0,-28.033299 -2e-5,-28.033286 16.68097,-28.033286 z" />
    <!--! Font Awesome Pro 6.0.0 by @fontawesome - https://fontawesome.com License - https://fontawesome.com/license (Commercial License) Copyright 2022 Fonticons, Inc. -->
    <!--! Font Awesome Pro 6.0.0 by @fontawesome - https://fontawesome.com License - https://fontawesome.com/license (Commercial License) Copyright 2022 Fonticons, Inc. -->
  </g>
  <g
     inkscape:groupmode="layer"
     id="layer3"
     inkscape:label="justIcon"
     style="display:none">
    <path
       id="path2101"
       style="fill:#ffffff;fill-opacity:1;stroke-width:0.63801"
       d="m 56.284222,8.4952224 c -0.80719,-0.003 -1.57503,0.005 -2.30656,0.0262 -17.55649,0.51547 -13.83685,9.0195936 -13.83685,68.8104096 0,74.744798 -0.49788,67.979778 5.05425,68.724458 2.14998,0.28838 2.60188,0.59243 2.60188,1.7533 0,2.03577 0.4447,2.25544 4.57199,2.25544 3.71008,0 3.72214,-0.009 3.72214,-1.91401 0,-1.91403 1e-5,-1.91403 23.287374,-1.91403 23.287364,0 23.287384,7.3e-4 23.287384,1.94519 0,2.83484 7.84032,2.72857 8.16951,-0.11084 0.16567,-1.42889 0.57193,-1.72631 2.7614,-2.01998 5.51069,-0.73911 5.01932,5.94562 5.01932,-68.356845 0,-80.0847121 6.52018,-68.6297226 -39.064396,-68.6297226 -10.067692,0 -17.617062,-0.54775 -23.267442,-0.56947 z m 23.094224,8.8636106 c 30.943494,0 30.943494,6e-6 30.943494,17.226279 0,17.22628 0,17.226285 -3.50906,17.22628 -3.50906,0 -3.50904,7.85e-4 -3.50904,-5.485391 0,-7.927134 -1.79686,-11.043609 -5.768264,-10.005046 -2.235375,0.584563 -3.163883,3.438014 -3.163883,9.717195 0,5.773777 0,5.773242 -22.968371,5.773242 -22.9684,5e-6 -22.96837,5e-6 -22.96837,-17.22628 0,-17.226273 -2e-5,-17.226273 30.943494,-17.226279 z m -7.975124,42.746691 c 22.96746,0 22.967449,-2e-6 22.977096,5.901597 0.0217,13.454354 8.357302,13.845205 8.823732,0.413712 0.2192,-6.314678 0.21918,-6.315309 3.66855,-6.315309 3.44925,0 3.44924,-1.8e-5 3.44924,38.599619 0,38.599677 0,38.599677 -30.943494,38.599677 -30.943514,0 -30.943494,0 -30.943494,-38.599677 0,-38.599637 -3e-5,-38.599619 22.96837,-38.599619 z" />
  </g>
  <g
     inkscape:groupmode="layer"
     id="layer2"
     inkscape:label="DogFood"
     style="display:none">
    <path
       d="m 79.487055,92.367269 c -5.847172,0 -14.078297,9.039281 -14.078297,14.748721 -0.06483,2.57108 1.905101,4.11078 5.223189,4.11078 3.595085,0 5.97462,-1.84911 8.855108,-1.84911 2.909957,0 5.296857,1.84911 8.855109,1.84911 3.248835,0 5.28507,-1.53823 5.28507,-4.10709 -0.06188,-5.70576 -8.290798,-14.752411 -14.140179,-14.752411 z M 68.642862,91.43903 c -0.763956,-2.550448 -3.130966,-4.208016 -5.276231,-3.692329 -2.145264,0.515686 -3.262393,2.999832 -2.498142,5.548805 0.763956,2.556344 3.130966,4.213911 5.27623,3.698224 2.145265,-0.515686 3.256942,-3.005724 2.498143,-5.5547 z m 6.239831,-1.532332 c 2.274186,-0.598569 3.416068,-3.617186 2.541608,-6.878548 -0.87446,-3.261361 -3.425645,-5.237922 -5.708672,-4.70529 -2.274187,0.598568 -3.416068,3.617188 -2.541608,6.878548 0.875934,3.195061 3.424909,5.309386 5.708672,4.70529 z m 20.730678,-2.158525 c -2.145264,-0.449386 -4.512273,1.14188 -5.276229,3.69233 -0.763956,2.551182 0.349931,5.036801 2.495195,5.552491 2.145263,0.449386 4.502694,-1.141885 5.276232,-3.692331 0.761006,-2.55413 -0.417711,-5.036804 -2.495198,-5.55249 z m -11.521955,2.158525 c 2.217462,0.598568 4.834212,-1.510229 5.708672,-4.70529 0.874461,-3.195058 -0.267053,-6.280348 -2.541607,-6.878548 -2.21746,-0.598566 -4.834211,1.510232 -5.708672,4.70529 -0.87667,3.19506 0.265211,6.281824 2.541607,6.878548 z"
       id="path1309"
       style="fill:#ffffff;fill-opacity:1;stroke-width:0.0736697" />
  </g>
</svg>
