<?xml version="1.0" standalone="no"?>
<!DOCTYPE svg PUBLIC "-//W3C//DTD SVG 20010904//EN"
 "http://www.w3.org/TR/2001/REC-SVG-20010904/DTD/svg10.dtd">
<svg version="1.0" xmlns="http://www.w3.org/2000/svg"
 width="600.000000pt" height="600.000000pt" viewBox="0 0 600.000000 600.000000"
 preserveAspectRatio="xMidYMid meet">
<metadata>
Created by potrace 1.14, written by Peter Selinger 2001-2017
</metadata>
<g transform="translate(0.000000,600.000000) scale(0.100000,-0.100000)"
fill="#000000" stroke="none">
<path d="M1970 5619 c-93 -15 -116 -21 -165 -43 -129 -60 -188 -174 -219 -421
-22 -184 -21 73 -12 -2670 3 -836 8 -1551 10 -1590 16 -258 32 -331 76 -352
21 -10 150 -19 214 -14 18 1 18 20 12 674 -12 1234 -9 1831 10 1987 21 179 38
249 77 326 33 65 80 111 143 139 111 49 208 58 683 59 l356 1 0 148 c0 82 -3
151 -7 153 -4 3 -215 6 -470 8 -465 4 -485 5 -590 31 -135 34 -187 108 -204
291 -8 94 -8 524 0 609 12 118 38 183 94 232 34 30 118 68 172 78 139 25 286
30 881 30 l576 0 2 162 1 162 -168 -6 c-241 -8 -654 -7 -897 2 -281 10 -520
12 -575 4z"/>
<path d="M3850 5445 l0 -181 49 -13 c62 -16 137 -65 162 -105 53 -85 63 -179
62 -581 0 -434 -11 -524 -62 -538 -12 -3 -51 -5 -87 -4 -95 3 -104 16 -105
161 -1 200 -14 284 -54 352 -30 50 -69 68 -132 61 -78 -8 -109 -56 -131 -197
-9 -62 -8 -1011 2 -1050 3 -14 9 -38 12 -54 9 -49 44 -122 72 -149 87 -83 181
8 216 208 3 17 8 80 11 140 11 211 15 217 120 217 60 1 70 -2 86 -23 44 -58
52 -238 52 -1204 0 -878 -5 -1017 -44 -1210 -35 -168 -105 -280 -211 -333 -48
-24 -170 -58 -238 -66 -176 -20 -561 -25 -1060 -12 l-296 8 0 -166 1 -166 80
-1 c44 -1 109 -3 145 -5 36 -2 295 -5 575 -8 659 -7 761 -13 766 -43 1 -5 3
-18 4 -31 5 -50 75 -82 163 -75 79 6 127 34 135 79 11 54 41 71 137 75 92 4
106 29 125 209 15 140 17 322 28 3730 2 633 -16 818 -94 971 -23 47 -82 105
-132 130 -54 28 -165 50 -269 53 l-88 3 0 -182z"/>
</g>
</svg>
