<?xml version="1.0" standalone="no"?>
<!DOCTYPE svg PUBLIC "-//W3C//DTD SVG 20010904//EN"
 "http://www.w3.org/TR/2001/REC-SVG-20010904/DTD/svg10.dtd">
<svg version="1.0" xmlns="http://www.w3.org/2000/svg"
 width="600.000000pt" height="600.000000pt" viewBox="0 0 600.000000 600.000000"
 preserveAspectRatio="xMidYMid meet">
<metadata>
Created by potrace 1.14, written by Peter Selinger 2001-2017
</metadata>
<g transform="translate(0.000000,600.000000) scale(0.100000,-0.100000)"
fill="#000000" stroke="none">
<path d="M2245 4884 c-11 -2 -43 -9 -72 -15 -115 -23 -175 -105 -207 -284 -13
-69 -19 -246 -19 -475 11 -2625 12 -2738 34 -2821 13 -53 36 -66 121 -68 33
-1 58 -25 58 -55 0 -37 23 -48 104 -50 96 -3 116 5 116 42 0 16 6 34 13 39 20
16 86 17 647 17 561 1 580 -1 580 -43 0 -32 38 -55 93 -57 73 -3 112 16 127
60 12 38 18 41 100 50 56 7 76 30 85 98 17 118 15 -12 26 2573 2 551 -1 620
-32 760 -30 130 -101 202 -222 223 -23 4 -134 6 -247 5 -544 -5 -796 -5 -1030
0 -140 3 -264 3 -275 1z m1345 -248 c218 -45 237 -90 234 -546 -2 -346 -6
-360 -113 -354 -56 3 -71 21 -71 88 -2 241 -34 326 -121 326 -79 0 -115 -70
-118 -234 -1 -48 -6 -98 -11 -111 -22 -59 -89 -68 -523 -69 -476 -2 -575 10
-636 79 -43 49 -53 118 -54 350 -1 241 6 304 35 358 38 69 102 101 225 113 32
3 60 8 62 10 8 7 1055 -2 1091 -10z m-450 -1126 c119 -3 209 -18 234 -39 16
-13 22 -47 31 -173 11 -150 66 -236 134 -208 55 22 86 113 96 275 7 119 16
142 59 147 100 11 110 -5 123 -182 9 -129 9 -1171 0 -1342 -21 -405 -102 -503
-436 -524 -139 -9 -650 -9 -771 0 -324 24 -406 124 -427 518 -8 169 -9 860 0
1038 20 400 89 484 402 490 44 1 80 2 81 3 3 3 327 0 474 -3z"/>
</g>
</svg>
