<?xml version="1.0" standalone="no"?>
<!DOCTYPE svg PUBLIC "-//W3C//DTD SVG 20010904//EN"
 "http://www.w3.org/TR/2001/REC-SVG-20010904/DTD/svg10.dtd">
<svg version="1.0" xmlns="http://www.w3.org/2000/svg"
 width="596.000000pt" height="596.000000pt" viewBox="0 0 596.000000 596.000000"
 preserveAspectRatio="xMidYMid meet">
<metadata>
Created by potrace 1.14, written by Peter Selinger 2001-2017
</metadata>
<g transform="translate(0.000000,596.000000) scale(0.100000,-0.100000)"
fill="#000000" stroke="none">
<path d="M1568 5945 c-2 -2 -57 -5 -123 -6 -198 -4 -366 -40 -545 -116 -333
-142 -611 -416 -761 -750 -51 -113 -104 -285 -113 -368 -29 -248 -28 -3142 0
-3445 11 -117 71 -304 142 -446 114 -227 297 -431 507 -567 134 -86 279 -151
433 -193 116 -32 122 -33 207 -43 66 -8 2173 -5 2610 3 865 18 875 18 990 57
512 173 864 547 995 1059 11 42 22 105 25 140 27 342 27 3125 0 3428 -5 55
-50 219 -83 302 -30 76 -107 228 -128 251 -8 8 -14 19 -14 23 0 15 -110 153
-177 221 -125 129 -240 215 -390 289 -81 40 -232 99 -286 111 -98 21 -181 37
-227 41 -58 6 -3056 14 -3062 9z"/>
</g>
</svg>
