<?xml version="1.0" standalone="no"?>
<!DOCTYPE svg PUBLIC "-//W3C//DTD SVG 20010904//EN"
 "http://www.w3.org/TR/2001/REC-SVG-20010904/DTD/svg10.dtd">
<svg version="1.0" xmlns="http://www.w3.org/2000/svg"
 width="600.000000pt" height="600.000000pt" viewBox="0 0 600.000000 600.000000"
 preserveAspectRatio="xMidYMid meet">
<metadata>
Created by potrace 1.14, written by Peter Selinger 2001-2017
</metadata>
<g transform="translate(0.000000,600.000000) scale(0.100000,-0.100000)"
fill="#000000" stroke="none">
<path d="M1969 5676 c-2 -2 -32 -6 -66 -10 -161 -17 -272 -96 -322 -231 -18
-48 -42 -151 -56 -245 -10 -71 -18 -342 -17 -605 0 -148 3 -981 6 -1850 5
-1454 9 -1922 20 -2015 3 -19 8 -60 11 -90 9 -68 31 -126 53 -135 9 -4 40 -9
67 -12 113 -9 145 -29 145 -92 0 -49 25 -59 155 -60 64 -1 123 3 134 9 14 7
21 23 23 52 4 52 23 64 118 73 83 7 1411 7 1508 0 40 -3 84 -10 98 -15 25 -10
28 -14 39 -63 9 -42 69 -66 156 -62 90 4 129 26 148 84 16 50 48 69 127 72
133 6 144 39 159 456 4 98 9 873 11 1723 3 850 5 1700 6 1890 2 429 -5 575
-37 751 -34 184 -110 294 -235 338 -106 37 -349 45 -795 26 -128 -5 -724 -5
-835 0 -123 6 -617 14 -621 11z m1641 -340 c80 -4 159 -9 175 -11 82 -11 104
-16 155 -31 138 -40 192 -109 220 -278 10 -58 6 -820 -4 -881 -14 -82 -40 -97
-155 -92 -71 4 -90 19 -92 71 -7 231 -11 291 -24 351 -26 120 -70 168 -150
167 -125 -3 -158 -77 -170 -385 -7 -202 -7 -202 -825 -201 -589 1 -657 6 -766
59 -71 35 -108 94 -130 205 -10 55 -14 617 -4 695 20 169 77 245 215 288 47
15 71 19 155 32 19 3 116 8 215 11 99 4 181 7 182 8 6 4 886 -3 1003 -8z
m-255 -1619 c11 -2 42 -8 69 -11 109 -15 137 -50 142 -174 9 -241 49 -368 129
-404 38 -17 64 -13 96 15 71 63 103 178 113 408 6 124 16 156 53 170 42 16
141 5 158 -18 45 -60 50 -184 50 -1208 0 -771 -6 -1112 -20 -1135 -2 -3 -7
-33 -10 -65 -4 -33 -16 -89 -27 -125 -72 -235 -207 -322 -537 -348 -123 -9
-1028 -9 -1146 0 -331 27 -464 115 -533 353 -11 39 -23 92 -27 118 -3 27 -8
58 -10 68 -20 102 -29 1519 -12 1754 33 440 128 571 437 601 36 4 66 8 68 9 6
5 987 -2 1007 -8z"/>
<path d="M2715 3041 c-89 -25 -131 -134 -99 -257 36 -140 142 -215 238 -169
82 39 107 183 52 297 -42 87 -129 146 -191 129z"/>
<path d="M3195 3021 c-76 -47 -119 -132 -119 -236 -1 -83 22 -138 68 -166 113
-69 259 67 258 241 0 73 -26 134 -67 160 -41 25 -101 26 -140 1z"/>
<path d="M2371 2673 c-119 -58 -97 -258 36 -327 127 -65 240 81 175 225 -43
94 -135 138 -211 102z"/>
<path d="M3527 2672 c-91 -38 -140 -143 -111 -240 16 -56 38 -79 86 -94 52
-15 104 1 151 48 86 86 81 236 -11 283 -44 22 -68 23 -115 3z"/>
<path d="M2909 2490 c-150 -51 -347 -251 -408 -415 -38 -101 -37 -171 3 -218
59 -69 169 -76 351 -24 137 39 173 40 292 3 110 -34 140 -40 206 -38 120 4
188 67 183 167 -11 185 -244 460 -450 529 -57 20 -111 18 -177 -4z"/>
</g>
</svg>
