<?xml version="1.0" standalone="no"?>
<!DOCTYPE svg PUBLIC "-//W3C//DTD SVG 20010904//EN"
 "http://www.w3.org/TR/2001/REC-SVG-20010904/DTD/svg10.dtd">
<svg version="1.0" xmlns="http://www.w3.org/2000/svg"
 width="600.000000pt" height="600.000000pt" viewBox="0 0 600.000000 600.000000"
 preserveAspectRatio="xMidYMid meet">
<metadata>
Created by potrace 1.14, written by Peter Selinger 2001-2017
</metadata>
<g transform="translate(0.000000,600.000000) scale(0.100000,-0.100000)"
fill="#000000" stroke="none">
<path d="M1970 5619 c-92 -14 -116 -21 -165 -43 -115 -52 -187 -175 -210 -356
-4 -30 -9 -64 -11 -75 -13 -63 -18 -302 -17 -695 1 -245 4 -1129 7 -1965 3
-836 8 -1554 10 -1595 15 -249 32 -326 76 -347 21 -10 150 -19 214 -14 18 1
18 20 12 674 -12 1234 -9 1831 10 1987 21 179 38 249 77 326 33 65 80 111 143
139 111 49 204 57 685 59 l354 1 0 148 c0 82 -3 151 -7 153 -4 3 -215 6 -470
8 -466 4 -486 5 -590 31 -135 34 -187 108 -204 291 -8 94 -8 524 0 609 12 118
49 205 104 244 78 55 171 76 392 89 69 4 373 7 677 7 l552 -1 0 162 0 163
-177 -6 c-257 -8 -593 -8 -862 2 -312 10 -545 12 -600 4z"/>
<path d="M3850 5445 l0 -181 49 -13 c62 -16 137 -65 162 -105 53 -85 63 -179
62 -581 0 -434 -11 -524 -62 -538 -12 -3 -51 -5 -87 -4 -94 3 -102 14 -103
162 -3 194 -17 284 -56 351 -30 50 -69 68 -132 61 -78 -8 -109 -56 -131 -197
-9 -62 -8 -1011 2 -1050 3 -14 9 -38 12 -54 9 -49 44 -122 72 -149 58 -55 123
-34 167 54 42 81 60 189 66 381 2 90 24 128 76 129 131 5 139 -3 158 -151 25
-188 25 -1966 0 -2110 -2 -14 -6 -49 -9 -78 -23 -213 -104 -368 -228 -430 -50
-25 -171 -58 -243 -66 -178 -21 -563 -25 -1056 -12 l-296 8 1 -166 1 -166 80
-1 c44 -1 109 -3 145 -5 36 -2 295 -5 575 -8 659 -7 761 -13 766 -43 1 -5 3
-18 4 -31 5 -50 75 -82 163 -75 79 6 127 34 135 79 11 54 41 71 137 75 84 4
103 30 120 164 21 169 21 136 33 3775 2 726 -25 916 -148 1043 -74 76 -168
105 -362 111 l-73 2 0 -181z"/>
<path d="M2715 3041 c-188 -53 -113 -441 85 -441 125 0 177 179 97 333 -36 69
-127 123 -182 108z"/>
<path d="M3250 3040 c-71 -13 -119 -58 -155 -146 -43 -106 -20 -233 49 -275
114 -69 259 67 258 243 0 113 -70 194 -152 178z"/>
<path d="M2374 2675 c-93 -39 -110 -189 -31 -277 83 -92 196 -88 242 8 68 143
-76 326 -211 269z"/>
<path d="M3530 2674 c-95 -41 -143 -144 -114 -242 16 -56 38 -79 86 -94 78
-23 172 37 203 132 16 48 10 114 -15 160 -25 47 -104 69 -160 44z"/>
<path d="M2922 2494 c-179 -52 -403 -299 -442 -488 -14 -70 -8 -112 24 -148
58 -68 164 -77 332 -30 168 48 161 49 384 -13 106 -29 213 -19 271 27 55 44
59 142 10 252 -73 167 -254 344 -404 396 -63 22 -111 23 -175 4z"/>
</g>
</svg>
